<?xml version="1.0" standalone="no"?>
<!DOCTYPE svg PUBLIC "-//W3C//DTD SVG 20010904//EN"
 "http://www.w3.org/TR/2001/REC-SVG-20010904/DTD/svg10.dtd">
<svg version="1.0" xmlns="http://www.w3.org/2000/svg"
 width="158.000000pt" height="158.000000pt" viewBox="0 0 158.000000 158.000000"
 preserveAspectRatio="xMidYMid meet">
<metadata>
Created by potrace 1.11, written by Peter Selinger 2001-2013
</metadata>
<g transform="translate(0.000000,158.000000) scale(0.100000,-0.100000)"
fill="#000000" stroke="none">
<path d="M682 1559 c-29 -11 -72 -40 -98 -65 -61 -61 -87 -121 -87 -210 -2
-116 55 -208 164 -266 62 -33 195 -33 256 0 66 35 110 79 137 136 72 151 6
333 -144 399 -66 29 -163 32 -228 6z"/>
<path d="M29 961 l-29 -29 0 -371 c0 -460 -18 -418 190 -436 166 -14 311 -46
434 -94 102 -41 112 -36 121 61 3 40 5 218 3 394 -3 366 2 345 -91 384 -29 11
-61 25 -72 30 -72 33 -282 72 -453 85 -71 5 -74 4 -103 -24z"/>
<path d="M1418 984 c-2 -1 -34 -5 -73 -9 -38 -3 -88 -10 -110 -15 -22 -5 -56
-11 -75 -14 -97 -15 -303 -96 -317 -126 -8 -18 -13 -685 -6 -753 9 -71 25 -75
131 -33 112 44 252 75 422 91 125 12 146 17 165 36 19 19 20 34 22 394 l2 375
-24 27 c-20 24 -31 28 -79 29 -31 0 -57 0 -58 -2z"/>
</g>
</svg>
